<?xml version="1.0" encoding="UTF-8" standalone="no"?>
<!-- Created with Inkscape (http://www.inkscape.org/) -->

<svg
   width="94.484833mm"
   height="63.748371mm"
   viewBox="0 0 94.484833 63.748371"
   version="1.1"
   id="svg5"
   inkscape:version="1.1.2 (b8e25be833, 2022-02-05)"
   sodipodi:docname="Logo.svg"
   xmlns:inkscape="http://www.inkscape.org/namespaces/inkscape"
   xmlns:sodipodi="http://sodipodi.sourceforge.net/DTD/sodipodi-0.dtd"
   xmlns="http://www.w3.org/2000/svg"
   xmlns:svg="http://www.w3.org/2000/svg">
  <sodipodi:namedview
     id="namedview7"
     pagecolor="#272727"
     bordercolor="#000000"
     borderopacity="1"
     inkscape:pageshadow="0"
     inkscape:pageopacity="1"
     inkscape:pagecheckerboard="0"
     inkscape:document-units="mm"
     showgrid="false"
     fit-margin-top="0"
     fit-margin-left="0"
     fit-margin-right="0"
     fit-margin-bottom="0"
     inkscape:zoom="1"
     inkscape:cx="1876.5"
     inkscape:cy="462"
     inkscape:window-width="1920"
     inkscape:window-height="1009"
     inkscape:window-x="-8"
     inkscape:window-y="-8"
     inkscape:window-maximized="1"
     inkscape:current-layer="layer1"
     inkscape:showpageshadow="0"
     inkscape:deskcolor="#505050" />
  <defs
     id="defs2" />
  <g
     inkscape:label="Capa 1"
     inkscape:groupmode="layer"
     id="layer1"
     transform="translate(-88.159332,-132.87813)">
    <rect
       style="fill:none;stroke:none;stroke-width:1;stroke-linecap:round;stroke-linejoin:round;stroke-opacity:1;paint-order:stroke markers fill"
       id="rect1202"
       width="130.51984"
       height="80.66571"
       x="70.14225"
       y="124.41481"
       inkscape:export-filename="D:\Nepy\Pictures\arnimex\Logo v2\LogoRectanglePadding.png"
       inkscape:export-xdpi="226.08"
       inkscape:export-ydpi="226.08" />
    <path
       style="fill:#6fbe25;fill-opacity:1;stroke:none;stroke-width:1;stroke-miterlimit:4;stroke-dasharray:none"
       d="m 94.08259,157.73955 c 0.16031,0.73729 -0.223375,1.68616 -0.247712,2.44863 -0.04942,1.55049 0.423613,3.42999 1.258398,4.73886 1.127321,1.76751 2.631382,2.5049 4.686135,2.45788 0.868669,-0.0199 1.725139,-0.12573 2.444139,-0.66063 1.06175,-0.78986 1.83692,-2.08109 2.54183,-3.17948 1.00059,-1.55913 1.92732,-3.15269 2.76386,-4.80582 0.30518,-0.60306 0.67402,-1.20937 0.89535,-1.84897 h 0.05 c 0.15546,0.65484 -0.0996,1.47993 -0.14542,2.1488 -0.0881,1.28659 -0.0593,2.5129 -0.003,3.79789 0.0615,1.39162 0.58642,3.1223 1.55638,4.14893 1.17869,1.24745 3.41325,1.35654 4.69663,0.22288 0.83004,-0.73319 1.32601,-1.89065 1.7958,-2.87265 0.82634,-1.72734 1.57497,-3.48161 2.31466,-5.24707 0.42376,-1.01144 0.78371,-2.05631 1.25165,-3.0483 0.11534,-0.24452 0.29529,-0.8999 0.57833,-0.9829 0.1766,-0.0518 0.41137,0.16835 0.54749,0.25905 0.38534,0.25686 0.79371,0.45875 1.19933,0.68097 0.14952,0.0819 0.40433,0.16191 0.452,0.34796 0.0861,0.33576 -0.29533,0.95566 -0.37579,1.29403 -0.23302,0.9796 -0.37509,1.99343 -0.2674,2.99832 0.0738,0.68882 0.28084,1.44535 0.79536,1.94022 1.36269,1.31067 3.9297,0.5301 4.93624,-0.79086 0.56769,-0.74508 1.0851,-1.525 1.53265,-2.34869 0.51116,-0.94072 1.40656,-2.13301 1.57212,-3.19821 0.34586,0.33871 0.0115,1.1599 7.5e-4,1.5991 -0.0317,1.29503 -0.27669,3.11851 0.3667,4.29761 0.74873,1.37223 2.76325,1.27324 3.72177,0.19983 0.58867,-0.65938 0.95747,-1.59436 1.41771,-2.34864 0.84703,-1.38657 1.792,-2.74406 2.82592,-3.99776 0.47374,-0.57463 1.16885,-1.74313 1.96141,-1.84897 -0.019,2.29407 -1.4377,4.59308 -0.98045,6.89615 0.48472,2.44439 3.5825,2.70024 5.07366,1.09939 1.14037,-1.22397 1.92393,-2.82208 2.68201,-4.29761 0.32781,-0.63844 0.58717,-1.5188 1.0704,-2.04885 -0.001,0.5238 -0.0915,1.07435 -0.14142,1.5991 -0.19889,2.08984 0,5.3855 2.64003,5.76784 0.42576,0.0616 0.93648,0.0673 1.34924,-0.0686 0.65414,-0.21523 1.15086,-0.63774 1.59262,-1.1518 0.19689,-0.22937 0.40977,-0.65903 0.67112,-0.80895 0.1884,-0.10799 0.60866,0.067 0.83454,0.0574 0.75357,-0.0321 1.56862,-0.40863 1.84896,-1.14741 -0.64813,-0.3648 -1.38822,-0.17321 -2.04885,0.05 l 1.59611,-3.0483 0.7026,-1.64908 c -0.30533,-0.0858 -0.64813,-0.14722 -0.94447,0.0157 -0.22287,0.12268 -0.3573,0.42631 -0.48873,0.63395 -0.33331,0.52625 -0.71909,1.0771 -0.96546,1.64908 h -0.05 c 0.089,-0.70411 0.11444,-1.57882 -0.44975,-2.09883 h -0.05 c -0.56169,0.66073 -0.79556,1.65293 -0.63664,2.4986 0.052,0.27645 0.35829,0.70966 0.31232,0.97066 -0.047,0.26795 -0.28684,0.59887 -0.42826,0.82834 -0.47274,0.76542 -1.53165,2.46627 -2.64553,1.87051 -0.77156,-0.41257 -0.86301,-1.32941 -1.09938,-2.0704 1.21332,-0.34431 2.29772,-1.36788 2.29872,-2.69849 -1.06991,0 -1.78851,0.28914 -2.54858,1.04941 l 0.0909,-2.39866 -0.14092,-1.59911 h -0.05 c -0.29283,0.42067 -0.68861,0.76253 -1.14935,0.9865 -0.28634,0.13908 -0.60817,0.12243 -0.88451,0.24297 -0.27185,0.11858 -0.51471,0.60556 -0.61466,0.86936 h -0.05 c -0.16891,-0.7112 -0.92349,-1.53264 -1.64908,-1.69905 -0.29134,1.02743 -0.33281,2.52099 0.94947,2.89838 -0.48173,1.19793 -1.40472,2.47357 -2.24225,3.44808 -0.12993,0.15136 -0.87801,1.09734 -1.0689,0.69141 -0.26086,-0.55579 0.13542,-1.57537 0.23986,-2.1406 0.39178,-2.12172 1.39572,-5.64066 -1.47617,-6.43166 -0.34881,-0.0961 -0.79006,-0.10475 -1.14936,-0.0543 -0.85752,0.12048 -1.58912,0.7051 -2.17979,1.29517 -1.09888,1.09714 -2.01087,2.38687 -2.84541,3.69159 -0.29983,0.46789 -0.60766,0.93018 -0.90549,1.39922 -0.15741,0.24831 -0.29834,0.56114 -0.56569,0.69961 0,-1.13411 -0.05,-2.26253 -0.05,-3.3981 0,-0.634 0.0979,-1.32421 0.0414,-1.94891 -0.0494,-0.5468 -0.0231,-1.18015 -0.37239,-1.64439 -0.49198,-0.65373 -2.04591,-0.62545 -2.59845,-0.082 -0.72455,0.71255 -1.10469,1.79425 -1.56533,2.67586 -0.66293,1.26879 -1.44609,2.47756 -2.19133,3.69793 -0.43141,0.70646 -0.92019,1.41391 -1.50941,1.99869 -0.15376,0.15261 -0.49002,0.54739 -0.74288,0.40912 -0.34811,-0.19039 -0.20704,-0.9818 -0.20654,-1.30842 0.002,-0.94862 0.2711,-1.92438 0.46404,-2.84841 0.0741,-0.35505 0.27055,-0.78391 0.22418,-1.14936 -0.0881,-0.69436 -1.07575,-0.88725 -1.58772,-1.17429 -0.66722,-0.37415 -1.18908,-1.05057 -1.6118,-1.67412 -0.48433,-0.7145 -1.01803,-1.964 -0.96201,-2.84841 0.048,-0.75808 0.5424,-1.58097 0.24192,-2.34794 -0.15247,-0.38928 -0.58888,-0.53065 -0.96627,-0.58682 -0.77541,-0.11549 -1.71174,-0.12034 -2.39866,0.31417 -0.4434,0.2805 -0.56908,0.69501 -0.70965,1.1714 -0.33601,1.13841 -0.19714,2.37192 0.28484,3.44807 0.20873,0.46594 0.82179,0.9055 0.76517,1.4492 -0.10474,1.00553 -0.69651,1.98164 -1.07435,2.89838 -0.90679,2.19997 -1.94896,4.40704 -3.08997,6.49637 -0.56499,1.03458 -1.26905,2.33935 -2.32261,2.94836 -0.30788,-1.29913 -0.65283,-2.50066 -0.74513,-3.84786 -0.11239,-1.64173 0.14976,-3.33004 0.38034,-4.94723 0.29398,-2.06215 0.57517,-4.10561 1.00848,-6.14657 0.22533,-1.06126 0.70481,-2.1661 0.75748,-3.24819 0.0196,-0.40398 0.0996,-0.83504 -0.18954,-1.17595 -0.23008,-0.27129 -0.59177,-0.32152 -0.9118,-0.42316 1.08845,-1.46558 2.33665,-2.89903 2.53989,-4.79732 0.0548,-0.51172 0.023,-1.05117 -0.0907,-1.54914 -0.85717,-3.7539 -5.82505,-3.35243 -8.59576,-2.36223 -0.56728,0.20274 -1.12397,0.47064 -1.64908,0.76582 -4.13034,2.32201 -7.10608,6.98715 -8.938458,11.24103 -0.461743,1.072 -0.805551,2.18863 -1.161602,3.29816 -0.152066,0.47383 -0.195941,1.07195 -0.458346,1.49841 -0.251259,0.40828 -0.777614,0.64814 -1.134316,0.95687 -0.780714,0.67567 -1.510658,1.41116 -2.18598,2.19233 -1.086993,1.25724 -2.253842,2.74411 -2.645255,4.39734 -0.157796,0.66653 -0.39323,1.68906 0.582855,1.83833 1.02183,0.15626 1.079498,-1.08245 1.393273,-1.78836 0.584624,-1.31521 1.384627,-2.53263 2.350888,-3.59799 0.305381,-0.33666 0.594968,-0.78706 1.003191,-0.99944 m 14.54189,-8.04551 1.94891,-0.94947 c -0.0443,0.49282 -0.37674,1.01039 -0.59567,1.44919 -0.49712,0.99649 -1.01623,1.98344 -1.57197,2.94835 -1.79045,3.10877 -3.54093,6.22983 -5.5653,9.19487 -0.6189,0.90645 -1.345,1.73863 -2.07784,2.55303 -0.20074,0.22313 -0.60726,0.77192 -0.933777,0.79601 -0.300981,0.0222 -0.584873,-0.48338 -0.713352,-0.70051 -1.119174,-1.8911 -0.854822,-4.2201 -0.64389,-6.29649 0.204686,-2.01443 0.801552,-3.97853 1.428254,-5.89671 1.102535,-3.37472 2.683305,-6.49862 4.906815,-9.29481 1.07335,-1.34975 2.16884,-2.59351 3.61793,-3.55177 0.67522,-0.4465 1.47158,-0.91404 2.29872,-0.9794 1.45948,-0.11534 2.4128,1.9567 2.29017,3.18192 -0.12158,1.21527 -0.81505,2.28772 -1.43995,3.29816 -0.91069,1.47253 -1.81114,2.93266 -2.94905,4.24763 m 37.52906,5.14713 c 0.54669,0.30463 1.09389,0.7996 1.18434,1.44919 0.032,0.23132 -0.0335,0.74148 -0.33981,0.77297 -0.87452,0.0899 -1.16785,-1.68281 -0.84453,-2.22216 m 9.1449,0.99944 -0.05,0.05 0.05,-0.05 m -0.05,0.0999 c 0.21089,0.81505 0.32232,2.03942 -0.24986,2.74847 -0.37379,-0.84333 -0.36579,-2.00543 0.24986,-2.74847 m -2.4986,1.29928 c -0.3558,1.09154 -1.0804,1.87315 -2.19878,2.1488 -0.0335,-0.2658 -0.14092,-0.58572 -0.068,-0.84953 0.25536,-0.92153 1.42371,-1.28188 2.26674,-1.29927 m -59.766657,2.89838 h 0.04997 c 0,2.62898 0.321971,5.27476 2.398712,7.13732 1.208976,1.08429 3.038505,1.30797 4.597385,1.30797 0.79451,0 1.5296,-0.0652 2.24875,-0.43896 0.79705,-0.41422 1.34665,-1.12322 1.89899,-1.80979 1.09174,-1.35714 2.58531,-3.05864 2.99827,-4.79732 h 0.05 c -0.0113,1.36344 -0.0909,2.48536 0.42981,3.79788 0.37109,0.93538 0.8888,1.82928 1.54104,2.5985 1.39577,1.64613 4.42428,1.51191 5.97471,0.18495 1.42196,-1.21707 2.21022,-3.0518 2.92732,-4.73236 0.30098,-0.70541 0.83518,-1.57567 0.87057,-2.34869 -0.33142,0.0541 -0.38929,0.42346 -0.49973,0.69961 -0.28859,0.72155 -0.59157,1.4355 -0.89949,2.1488 -0.90615,2.09903 -2.24435,4.69168 -4.79733,4.93874 -0.84962,0.0823 -1.79475,-0.01 -2.54858,-0.43505 -1.56777,-0.88386 -2.56482,-3.18473 -2.78419,-4.90347 -0.11119,-0.87141 0.0241,-1.74093 0.19564,-2.59855 0.0312,-0.15621 0.25661,-0.76022 -0.012,-0.8035 -0.20599,-0.0331 -0.29959,0.41807 -0.35026,0.55364 -0.23597,0.6309 -0.50102,1.25035 -0.80995,1.84897 -0.68816,1.33331 -1.59955,2.53429 -2.53563,3.69794 -0.63575,0.79026 -1.26315,1.56352 -2.2488,1.91433 -0.77242,0.2749 -1.59271,0.27355 -2.39866,0.19294 -0.828838,-0.0829 -1.674217,-0.17015 -2.448635,-0.50182 -1.635787,-0.70051 -2.763657,-2.36903 -3.179526,-4.05409 -0.242664,-0.98325 -0.368495,-2.03726 -0.368495,-3.0483 0,-0.19104 0.107392,-0.93642 -0.07995,-1.04061 -0.250761,-0.13948 -0.795556,0.86501 -0.908594,1.04061 -0.795356,1.23532 -1.185538,2.79594 -2.097779,3.9456 -0.229323,0.28904 -0.530364,0.27425 -0.861469,0.19559 -0.09815,-0.0233 -0.412265,-0.15151 -0.474891,-0.0148 -0.05645,0.12323 0.14511,0.19814 0.2253,0.22478 0.278855,0.0926 0.659981,0.15391 0.9492,0.0746 0.469839,-0.12872 0.715501,-0.83493 0.911841,-1.22761 0.258707,-0.51736 0.526206,-1.02713 0.774469,-1.54914 0.360199,-0.75752 0.941824,-1.43754 1.262045,-2.19877 m 62.814954,-0.05 -0.05,0.05 0.05,-0.05 m 1.64908,0.05 c -0.20489,0.69826 -1.51765,0.89475 -2.09883,0.64964 0.48723,-0.65564 1.36973,-0.65569 2.09883,-0.64964 m -38.46319,0.25416 c -0.1814,0.10689 -0.0233,0.39858 0.15831,0.28364 0.16806,-0.10629 0.0244,-0.39123 -0.15831,-0.28364 m -11.72546,1.07845 -0.0167,0.0333 0.0167,-0.0333 m -19.009009,2.97774 c -0.173818,0.08 -0.0727,0.37319 0.11529,0.30148 0.176122,-0.0672 0.06166,-0.38284 -0.11529,-0.30148 m 37.215499,3.4853 c 0.0622,0.28624 -0.0447,0.51861 -0.085,0.79955 -0.0886,0.61841 -0.17515,1.23252 -0.28409,1.84897 -0.28604,1.6183 -0.50397,3.26653 -0.7159,4.89727 -0.57713,4.44132 -0.76403,8.9615 -0.76403,13.4425 0,1.68906 -0.18694,3.53653 0.16941,5.1971 0.16705,0.77857 0.85587,1.2468 1.62959,1.19483 1.12882,-0.0754 1.55368,-0.92348 1.8855,-1.89444 0.58492,-1.71154 1.07415,-3.47406 1.42835,-5.24707 0.4388,-2.19628 1.0824,-4.39055 1.6943,-6.54635 0.81835,-2.88339 1.63219,-5.76753 2.78045,-8.54523 0.52851,-1.27849 1.09494,-2.53119 1.75857,-3.74596 0.32332,-0.59157 0.66013,-1.32946 1.14686,-1.80095 0,1.79785 -0.22037,3.60944 -0.39128,5.39699 -0.41427,4.33284 -1.00794,8.68066 -1.00794,13.04272 0,1.49067 -0.48358,4.27162 1.54914,4.55396 0.28034,0.039 0.51971,0.032 0.79955,-0.006 0.38279,-0.0525 0.78956,-0.11443 1.09489,-0.37379 0.46124,-0.39228 0.61966,-1.12287 0.79856,-1.67506 0.39627,-1.22732 0.76307,-2.46363 1.13336,-3.69794 1.30877,-4.36212 2.30822,-8.80634 4.01276,-13.04272 0.45125,-1.12198 1.00145,-2.21172 1.6231,-3.24819 0.28534,-0.47564 0.57418,-1.06985 1.03192,-1.39922 0.24137,0.76187 0.14992,1.65653 0.14992,2.44863 0,1.78141 -0.12293,3.52759 -0.29134,5.29705 -0.29833,3.1336 -0.7181,6.2605 -1.01643,9.39476 -0.23687,2.48911 -0.3628,5.08066 0.13143,7.54579 0.13342,0.66512 0.39578,1.40521 0.82204,1.94041 1.09938,1.37873 3.33164,1.9704 4.84729,0.93598 0.5482,-0.37379 0.89001,-0.97096 1.22382,-1.52715 0.55469,-0.92448 1.02493,-1.91193 1.45719,-2.89838 0.19939,-0.45425 0.46674,-0.91249 0.57168,-1.39922 0.32932,0.1829 0.52021,0.63165 0.79955,0.8975 0.44725,0.42626 1.05791,0.7076 1.64908,0.87201 1.81999,0.50522 4.08872,0.47524 5.79677,-0.41776 1.48717,-0.77707 2.692,-2.05586 3.72542,-3.35064 0.94847,-1.18783 1.57612,-2.70299 2.62104,-3.79787 0.25536,0.64913 0.52471,1.28278 0.85552,1.89894 0.12543,0.23386 0.44075,0.59416 0.42876,0.87051 -0.015,0.33481 -0.5342,0.78406 -0.74109,1.02842 -0.63214,0.74559 -1.2438,1.52316 -1.76851,2.34919 -0.26335,0.41527 -0.7216,1.27179 0.1759,1.18734 0.3558,-0.0335 0.57118,-0.38179 0.77057,-0.63814 0.50122,-0.64314 1.02093,-1.26829 1.53764,-1.89844 0.14492,-0.1764 0.57868,-0.85553 0.83404,-0.78257 0.14592,0.0415 0.24336,0.26835 0.32532,0.38229 0.23737,0.33032 0.48972,0.64064 0.76457,0.94098 0.98345,1.0749 2.81643,2.20377 4.3131,1.45069 0.61915,-0.31133 1.03292,-0.93998 1.4197,-1.49217 0.84603,-1.20733 1.52565,-2.53159 2.18229,-3.84785 0.22287,-0.44676 0.42426,-0.9055 0.65113,-1.34925 0.0905,-0.1769 0.24786,-0.40228 0.0365,-0.55669 -0.60316,-0.44075 -1.03242,0.29084 -1.28128,0.70661 -0.77557,1.29627 -1.4352,2.64302 -2.28273,3.89782 -0.24636,0.3648 -0.51371,0.73659 -0.82754,1.04742 -0.12093,0.11993 -0.29983,0.31132 -0.47473,0.1794 -0.25686,-0.1939 -0.43676,-0.60816 -0.60666,-0.87702 -0.47824,-0.75507 -0.88951,-1.55763 -1.30428,-2.34868 -0.13742,-0.26286 -0.57368,-0.79256 -0.48273,-1.09939 0.0984,-0.33232 0.58068,-0.70811 0.82154,-0.94947 0.65014,-0.65214 1.28529,-1.32276 1.90544,-2.00338 0.1779,-0.19489 0.96296,-0.90925 0.48573,-1.14461 -0.33631,-0.16581 -0.84253,-0.0333 -1.14186,0.15631 -0.74109,0.46959 -1.34375,1.35259 -1.94042,1.99024 -0.1744,0.18689 -0.45375,0.62765 -0.7101,0.69211 -0.26736,0.0675 -0.58668,-0.55819 -0.71061,-0.74009 -0.40727,-0.59966 -1.03342,-1.91947 -1.83597,-2.03816 -0.69012,-0.10209 -1.29328,0.50002 -1.60511,1.03872 -0.32332,0.55769 -0.48373,1.20183 -0.81654,1.74903 -0.7251,1.19133 -1.73903,2.28222 -2.66302,3.31914 -1.28928,1.4482 -2.84041,2.66502 -4.70987,3.2357 -0.59367,0.1814 -1.63209,0.45724 -2.1438,-0.019 -0.38729,-0.3608 -0.44925,-0.94397 -0.49623,-1.4387 -0.0175,-0.18539 -0.0555,-0.47523 0.10744,-0.60716 0.16291,-0.13193 0.43926,-0.15091 0.63365,-0.21938 0.45575,-0.16091 0.90999,-0.33931 1.34925,-0.54119 1.63608,-0.75259 3.32114,-1.87196 4.06823,-3.57951 0.22187,-0.50721 0.44775,-1.13686 0.36879,-1.69905 -0.13992,-0.99459 -0.96296,-1.39112 -1.83847,-1.57482 -1.6231,-0.34061 -3.21721,-0.0327 -4.64741,0.80075 -1.56313,0.91149 -2.80244,2.49211 -3.43258,4.17218 -0.21838,0.58167 -0.21039,1.22581 -0.43176,1.79899 -0.41627,1.0784 -0.98845,2.13031 -1.53265,3.14824 -0.75408,1.41222 -1.62309,2.93886 -2.84841,3.99777 -0.93648,-2.01887 -0.65164,-4.54446 -0.50422,-6.69626 0.28035,-4.09072 1.22282,-8.07185 1.6121,-12.14322 0.23137,-2.4204 0.57118,-4.91156 -0.14691,-7.29593 -0.21289,-0.70771 -0.53571,-1.45504 -1.0754,-1.97695 -0.93298,-0.90195 -2.56208,-0.99245 -3.68345,-0.41517 -0.62765,0.32317 -1.0709,0.89185 -1.48767,1.44265 -1.99489,2.63782 -2.97084,6.03923 -3.96379,9.14489 -0.31732,0.9929 -0.60766,1.99099 -0.87401,2.99833 -0.14742,0.55624 -0.37479,1.12287 -0.42077,1.69905 -0.24286,-0.28284 -0.0485,-0.67202 -0.009,-0.99944 0.0924,-0.77307 0.27035,-1.57147 0.30683,-2.34869 0.11793,-2.50565 0.69061,-4.98187 0.75208,-7.49582 0.029,-1.17479 0.0695,-2.39441 -0.56319,-3.44807 -0.92448,-1.53994 -3.5715,-1.67996 -4.93424,-0.66158 -0.68602,0.51272 -1.13522,1.42556 -1.54044,2.16075 -2.09953,3.80912 -3.51444,8.08938 -4.5805,12.29314 -0.45025,1.77551 -0.7244,3.66045 -1.27494,5.39699 -0.18509,-0.34681 -0.0599,-0.7261 -0.0507,-1.09939 0.0214,-0.87152 0.11064,-1.72954 0.14872,-2.59855 0.1675,-3.82542 1.04431,-7.57717 1.30567,-11.39364 0.0837,-1.22142 0.30918,-2.48357 0.0463,-3.69794 -0.13717,-0.6334 -0.28139,-1.19064 -0.90024,-1.51446 -2.2466,-1.17539 -4.0444,1.72624 -4.95844,3.31346 -1.01958,1.77051 -1.78925,3.70623 -2.55282,5.59687 -1.33591,3.30776 -2.53419,6.74224 -3.43389,10.19432 -0.40642,1.55962 -0.85342,3.19321 -1.00264,4.79732 -0.0412,0.44325 -0.44285,1.40621 0.25451,1.58311 0.66118,0.16791 0.95452,-0.44625 1.06206,-0.98345 0.29103,-1.45419 0.65633,-2.91237 1.03272,-4.34757 1.0776,-4.10971 2.45663,-8.14181 4.15248,-12.04328 0.73809,-1.698 1.48013,-3.76685 2.74752,-5.14713 m 36.9294,12.9078 c 0.90999,-0.0909 0.41676,1.57262 0.20238,1.98389 -0.57018,1.09639 -1.77301,1.98639 -2.85091,2.54458 -0.29683,0.15392 -0.69861,0.48073 -1.04391,0.48123 -0.23687,0 -0.1899,-0.26985 -0.15342,-0.42726 0.10544,-0.45125 0.32632,-0.8895 0.5367,-1.29927 0.62416,-1.21482 1.78851,-3.13026 3.30916,-3.28317 m 20.09279,2.08683 c -0.1774,0.03 -0.21888,0.34981 -0.001,0.32332 0.20438,-0.0245 0.21787,-0.3598 0.001,-0.32332 m -16.29491,7.74268 c 0.68762,-1.30976 1.58461,-2.54408 2.44164,-3.7479 0.23636,-0.33182 0.83253,-1.09189 0.0575,-1.2618 -0.22487,-0.049 -0.36629,0.26385 -0.46724,0.41227 -0.33831,0.49622 -0.74408,0.94897 -1.14036,1.39922 -1.39272,1.58262 -2.99883,3.42159 -5.03919,4.16268 -1.53414,0.55768 -3.73491,0.7026 -5.29704,0.14991 -0.57618,-0.20388 -1.02893,-0.63564 -1.44869,-1.0644 -0.0959,-0.0979 -0.30783,-0.42926 -0.47524,-0.31233 -0.14292,0.0999 -0.1734,0.40577 -0.21788,0.56219 -0.12643,0.44375 -0.27934,0.87951 -0.47223,1.29927 -0.8975,1.95541 -2.11982,4.04025 -4.53197,4.14569 -2.1598,0.0945 -3.98078,-1.73004 -4.6624,-3.64597 -0.37629,-1.05741 -0.43476,-2.23775 -0.43476,-3.34813 0,-0.7161 -0.05,-1.4302 -0.05,-2.1488 0,-0.0829 0.0435,-0.72759 -0.17291,-0.59067 -0.1769,0.11194 -0.0769,0.75408 -0.0769,0.94047 0,0.98645 -0.03,2.01938 0.0854,2.99833 0.20039,1.69356 0.56119,3.32665 1.82198,4.58894 2.13681,2.13981 5.5519,1.82398 7.18499,-0.74109 0.73509,-1.15485 1.23681,-2.40116 1.65158,-3.69793 0.44076,0.44075 0.87351,0.91549 1.44919,1.18334 0.56019,0.25985 1.24381,0.27784 1.84897,0.32032 1.6051,0.11244 3.19022,0.037 4.64741,-0.7171 1.52415,-0.78856 2.77395,-2.07684 3.90632,-3.33514 0.63115,-0.70161 1.4312,-1.4372 1.84047,-2.29872 0.27985,0.38029 -0.32382,0.97196 -0.55669,1.29928 -0.51321,0.7206 -1.00544,1.46018 -1.49217,2.19877 -0.21238,0.32232 -0.56418,0.75958 -0.62015,1.14936 -0.087,0.60266 1.34925,0.52221 1.71954,0.57068 0.39078,0.0515 0.97996,0.11993 1.34925,-0.0395 0.99894,-0.43076 1.66007,-1.88445 2.34869,-2.68 1.04891,2.24325 4.21815,3.70943 6.4464,2.21126 0.57518,-0.38678 0.97096,-0.95796 1.37024,-1.51165 0.82104,-1.13637 1.49816,-2.35319 2.1408,-3.59799 0.31533,-0.61116 0.74559,-1.23532 0.93648,-1.89894 -0.29134,-0.042 -0.37279,0.22187 -0.48723,0.44975 -0.22687,0.45224 -0.46524,0.90149 -0.70111,1.34924 -0.62715,1.18834 -1.27878,2.35419 -2.05985,3.44808 -0.45424,0.63564 -0.91499,1.27079 -1.59911,1.67656 -1.47267,0.87302 -3.575,0.26036 -4.74735,-0.83153 -0.37379,-0.34781 -0.66762,-0.75908 -0.92948,-1.19484 -0.0785,-0.13092 -0.18989,-0.41776 -0.37429,-0.41776 -0.25885,0 -0.50372,0.48722 -0.63864,0.66762 -0.48223,0.64214 -0.95447,1.35625 -1.55563,1.89345 -0.63865,0.57068 -2.24025,0.20188 -2.99833,0.005 M 127.51332,185.324 v 0.24986 h -0.05 l 0.05,-0.24986 m 16.69069,0.8995 c 0.56918,-0.20539 -0.1824,-0.64215 0,0 z"
       id="path1116"
       sodipodi:nodetypes="cccccscccccccccccccccccccccccccccccccccccccccccccccccccccccccccccccccccccccccsccccccccccccccccccccccccccccccscccccccscccccccccccccccscccccccccccccccccccssccccscccccccccccccccccssccccsccccccccccccccccccccccccscccccscccsccccccccscccccccccccccccccscccccccssccccccccccccccccccccccscccccccccccccccccccccccccccccccccscsccccccccccccccccccccccccccccsssscccccccccccccccccccccccccscsccccccc"
       inkscape:export-filename="D:\Nepy\Pictures\arnimex\Logo v2\LogoRectanglePadding.png"
       inkscape:export-xdpi="226.08"
       inkscape:export-ydpi="226.08" />
    <g
       id="g1138"
       style="stroke-width:3.52957;stroke-miterlimit:4;stroke-dasharray:none"
       transform="matrix(0.14166012,0,0,0.14166012,128.84186,157.8286)"
       inkscape:export-filename="D:\Nepy\Pictures\arnimex\Logo v2\LogoRectanglePadding.png"
       inkscape:export-xdpi="226.08"
       inkscape:export-ydpi="226.08">
      <path
         style="fill:#fef101;fill-opacity:1;stroke:#ebdf01;stroke-width:3.52957;stroke-linecap:square;stroke-linejoin:round;stroke-miterlimit:4;stroke-dasharray:none;stroke-opacity:1;paint-order:normal"
         d="m 161.19747,-63.536311 c 4.64664,1.72233 -0.0191,10.32491 -0.33043,10.08435 0,0 1.54857,-1.516686 3.52138,-2.311772 2.02671,-0.81681 4.48972,-0.896361 5.30907,0.358662 1.7777,2.722958 -5.69051,5.38514 -5.69051,5.38514 0,0 3.35607,-0.776693 7.38406,1.216897 4.21868,2.08797 8.98393,6.969353 7.75575,9.978343 -1.60779,3.939 -12.89386,-4.60189 -12.89386,-4.60189 0,0 4.99198,3.22648 8.07954,7.78379 3.68345,5.43686 4.32298,11.92541 -1.08823,14.13787 -5.00131,2.04486 -9.10883,-18.46458 -9.38331,-18.25545 1.56766,0.13632 4.57434,25.92167 -5.25757,25.1195 -9.76988,-0.79711 -2.62878,-27.27364 -2.62878,-27.27364 0,0 -1.23008,8.80361 -5.26883,14.58548 -4.50434,6.44842 -10.94243,10.69649 -16.49167,6.04317 -6.03976,-5.06463 -1.10959,-12.33297 4.9646,-17.74078 4.68865,-4.17427 11.90343,-6.39292 11.90343,-6.39292 0,0 -7.93221,3.81795 -15.81449,4.96574 -7.11896,1.03664 -14.22411,-0.29991 -14.92768,-5.11179 -0.6799,-4.65001 5.47996,-8.89296 12.38774,-9.8155 7.11541,-0.95027 14.99543,1.49102 14.99543,1.49102 0,0 -22.23258,-6.99516 -13.19113,-14.27393 7.44604,-5.9944 16.48482,9.27531 16.48466,9.27377 0,0 -8.3232,-9.36944 -2.14733,-11.57266 3.27249,-1.16745 6.31318,2.76742 7.20821,7.12096 0.60181,2.92724 0.28312,5.59459 -0.17597,6.31192 -0.26285,-0.0277 1.5944,-7.87829 5.29592,-6.50628 z"
         id="path1118"
         sodipodi:nodetypes="scsscsscsscscssscssscscsscs" />
      <path
         style="fill:#d5a822;fill-opacity:1;stroke:none;stroke-width:3.52957;stroke-linecap:butt;stroke-linejoin:miter;stroke-miterlimit:4;stroke-dasharray:none;stroke-opacity:1"
         d="m 155.90155,-57.030029 c 4.50895,2.346678 10.66447,8.572744 10.40561,13.253458 -0.90882,8.471685 -10.67746,2.117773 -13.47252,-0.328598 -3.60231,-3.370064 -4.80728,-6.517401 -4.67339,-9.310281 0.24166,-5.040933 4.12252,-5.497447 7.7403,-3.614579 z"
         id="path1120"
         sodipodi:nodetypes="sccss" />
      <path
         id="path1122"
         style="fill:#a07500;fill-opacity:1;stroke:none;stroke-width:13.3401;stroke-linecap:butt;stroke-linejoin:miter;stroke-miterlimit:4;stroke-dasharray:none;stroke-opacity:1"
         d="m 575.38086,-219.40625 c -8.27815,-0.023 -14.801,5.01838 -15.40039,17.52148 -0.45144,9.41682 3.12905,19.90002 13.57226,31.09571 0.62261,-3.55641 -2.9722,-12.63526 -3.86073,-18.74164 -1.15901,-7.96518 -3.68687,-25.50417 14.74522,-21.01263 12.3542,3.01048 13.60127,8.78518 23.3577,8.52575 -6.09634,-5.68855 -12.69665,-10.47744 -18.56054,-13.5293 -4.70027,-2.44624 -9.51735,-3.84734 -13.85352,-3.85937 z"
         transform="scale(0.26458333)"
         sodipodi:nodetypes="sscsscss" />
      <ellipse
         style="opacity:1;fill:#a07500;fill-opacity:1;stroke:none;stroke-width:3.52957;stroke-linecap:square;stroke-linejoin:round;stroke-miterlimit:4;stroke-dasharray:none;stroke-opacity:1;paint-order:normal"
         id="ellipse1124"
         cx="155.57388"
         cy="-52.421635"
         rx="0.92995322"
         ry="0.92460632" />
      <ellipse
         style="opacity:1;fill:#a07500;fill-opacity:1;stroke:none;stroke-width:3.52957;stroke-linecap:square;stroke-linejoin:round;stroke-miterlimit:4;stroke-dasharray:none;stroke-opacity:1;paint-order:normal"
         id="ellipse1126"
         cx="156.28386"
         cy="-50.201363"
         rx="0.52352381"
         ry="0.4353787" />
      <ellipse
         style="opacity:1;fill:#a07500;fill-opacity:1;stroke:none;stroke-width:3.52957;stroke-linecap:square;stroke-linejoin:round;stroke-miterlimit:4;stroke-dasharray:none;stroke-opacity:1;paint-order:normal"
         id="ellipse1128"
         cx="153.03088"
         cy="-54.125565"
         rx="0.5782901"
         ry="0.52665597" />
      <ellipse
         style="opacity:1;fill:#a07500;fill-opacity:1;stroke:none;stroke-width:3.52957;stroke-linecap:square;stroke-linejoin:round;stroke-miterlimit:4;stroke-dasharray:none;stroke-opacity:1;paint-order:normal"
         id="ellipse1130"
         cx="153.54724"
         cy="-52.382912"
         rx="0.45676625"
         ry="0.44385773" />
      <ellipse
         style="opacity:1;fill:#a07500;fill-opacity:1;stroke:none;stroke-width:3.52957;stroke-linecap:square;stroke-linejoin:round;stroke-miterlimit:4;stroke-dasharray:none;stroke-opacity:1;paint-order:normal"
         id="ellipse1132"
         cx="159.69495"
         cy="-43.940701"
         rx="0.5865044"
         ry="0.64025176" />
      <ellipse
         style="opacity:1;fill:#a07500;fill-opacity:1;stroke:none;stroke-width:3.52957;stroke-linecap:square;stroke-linejoin:round;stroke-miterlimit:4;stroke-dasharray:none;stroke-opacity:1;paint-order:normal"
         id="ellipse1134"
         cx="161.90852"
         cy="-43.878746"
         rx="0.30271193"
         ry="0.37175909" />
      <ellipse
         style="opacity:1;fill:#a07500;fill-opacity:1;stroke:none;stroke-width:3.52957;stroke-linecap:square;stroke-linejoin:round;stroke-miterlimit:4;stroke-dasharray:none;stroke-opacity:1;paint-order:normal"
         id="ellipse1136"
         cx="161.34094"
         cy="-42.185169"
         rx="0.41622889"
         ry="0.3304525" />
    </g>
    <g
       id="g1176"
       transform="matrix(0.14166012,0,0,0.14166012,124.41451,155.92525)"
       inkscape:export-filename="D:\Nepy\Pictures\arnimex\Logo v2\LogoRectanglePadding.png"
       inkscape:export-xdpi="226.08"
       inkscape:export-ydpi="226.08"
       style="stroke-width:1.41183;stroke-miterlimit:4;stroke-dasharray:none">
      <g
         id="g1174"
         transform="translate(36.218816,1.7525233)"
         style="stroke-width:1.41183;stroke-miterlimit:4;stroke-dasharray:none">
        <path
           id="path1140"
           style="fill:#000000;fill-opacity:1;stroke:#000000;stroke-width:1.41183;stroke-linecap:butt;stroke-linejoin:miter;stroke-miterlimit:4;stroke-dasharray:none;stroke-opacity:1"
           d="m 201.42137,-104.5926 -1.60041,0.0517 c -3.61082,5.375111 -6.4818,9.990949 -8.65529,14.316445 a 3.0291055,2.072827 64.748346 0 0 -0.16743,0.09663 3.0291055,2.072827 64.748346 0 0 -0.23099,3.80597 3.0291055,2.072827 64.748346 0 0 3.2122,1.445906 3.0291055,2.072827 64.748346 0 0 0.23048,-3.805968 3.0291055,2.072827 64.748346 0 0 -1.5782,-1.519288 c 2.96248,-4.471339 5.91378,-9.053774 8.78964,-14.391365 z" />
        <path
           style="fill:#000000;fill-opacity:1;stroke:#000000;stroke-width:1.41183;stroke-linecap:butt;stroke-linejoin:miter;stroke-miterlimit:4;stroke-dasharray:none;stroke-opacity:1"
           d="m 206.41439,-101.73763 c -1.91325,4.125888 -6.9743,9.726326 -7.22343,12.634069 0.62859,1.190729 2.87803,4.693882 4.64941,6.853356 0,0 -1.96573,1.497693 -1.78201,2.656437 0.13959,0.880347 0.87497,1.231107 1.75176,1.391465 1.31597,0.240679 2.53733,-3.492618 2.59007,-3.668429 -2.00181,-2.280716 -5.27773,-6.30813 -5.62673,-7.252383 -0.30081,-0.813866 5.29114,-8.552706 7.74031,-12.431955 z"
           id="path1142"
           sodipodi:nodetypes="cccsscscc" />
        <path
           id="path1144"
           style="opacity:1;fill:#fde204;fill-opacity:1;stroke:#faba00;stroke-width:1.41183;stroke-linecap:round;stroke-linejoin:round;stroke-miterlimit:4;stroke-dasharray:none;stroke-opacity:1"
           d="m 196.08646,-106.60879 c -1.84252,5.20603 -9.44684,11.660582 -9.44684,11.660582 0,0 -6.82387,-9.117192 -6.82387,-15.650472 0,-6.53327 4.65152,-9.07505 8.21799,-8.93801 3.3768,0.12975 5.944,1.83891 7.38569,4.28899 1.42684,2.42483 1.75126,5.57541 0.66703,8.63891 z"
           sodipodi:nodetypes="scssss" />
        <path
           id="path1146"
           style="opacity:1;fill:#fde204;fill-opacity:1;stroke:#faba00;stroke-width:1.41183;stroke-linecap:round;stroke-linejoin:round;stroke-miterlimit:4;stroke-dasharray:none;stroke-opacity:1"
           d="m 228.36219,-119.40091 c 3.53079,6.34266 -6.40409,15.30422 -15.8739,17.20534 -9.46981,1.90112 -17.50165,-2.61942 -19.73371,-9.44452 -2.25642,-6.8996 0.0332,-15.76073 9.59403,-17.13233 9.68888,-1.38997 22.90527,3.78778 26.01358,9.37151 z"
           sodipodi:nodetypes="sssss" />
        <path
           id="path1148"
           style="opacity:1;fill:#dcc403;fill-opacity:1;stroke:none;stroke-width:5.33605;stroke-linecap:round;stroke-linejoin:round;stroke-miterlimit:4;stroke-dasharray:none;stroke-opacity:1"
           d="m 1822.7585,162.86671 c 0,0 -9.2632,4.96303 -15.7269,9.90242 -9.1474,6.99016 -16.7952,15.71593 -20.0098,26.77045 -3.12,10.7289 -5.49,21.44368 -4.7015,29.69798 2.4319,-0.90253 5.7182,-2.34884 8.0891,-3.44886 l 4.5093,-2.124 c 0.3517,-12.08455 2.8217,-20.81228 10.8118,-31.24087 5.7636,-7.52268 13.768,-16.82285 23.906,-20.53755 -0.3838,-1.03682 -1.892,-3.1107 -2.4512,-4.11535 -1.4377,-1.66506 -2.6963,-3.47343 -4.4268,-4.90422 z"
           transform="matrix(0.26458333,0,0,0.26458333,-255.92618,-164.24213)"
           sodipodi:nodetypes="csscccsccc" />
        <path
           style="fill:#000000;fill-opacity:1;stroke:#000000;stroke-width:1.41183;stroke-linecap:butt;stroke-linejoin:miter;stroke-miterlimit:4;stroke-dasharray:none;stroke-opacity:1"
           d="m 214.19144,-90.935371 c -0.59048,1.283965 1.08241,9.010859 2.8102,11.573957 0.19029,0.282293 -4.23309,0.820466 -5.0673,1.972617 -0.79556,1.098778 -0.77969,2.009012 -0.16002,2.740959 0.82954,0.979867 2.72256,0.361638 3.96862,-0.747175 -0.0791,-0.05803 3.19226,-2.983262 2.77666,-4.432249 -1.26203,-4.40003 -3.17402,-10.041212 -2.77666,-10.42769 0.11444,-0.11131 1.48859,-2.71725 3.97969,-4.527351 0.48892,-0.355263 -0.39478,-1.848365 -0.39478,-1.848365 -1.69718,1.470571 -4.2084,3.83369 -5.13641,5.695297 z"
           id="path1150"
           sodipodi:nodetypes="cssscssscc" />
        <path
           style="fill:#fde204;fill-opacity:1;stroke:#faba00;stroke-width:1.41183;stroke-linecap:butt;stroke-linejoin:miter;stroke-miterlimit:4;stroke-dasharray:none;stroke-opacity:1"
           d="m 231.99028,-119.02555 c 9.34514,1.42569 13.00242,8.35636 14.23925,15.0425 2.69156,14.550252 -17.84537,29.407003 -17.84537,29.407003 l -1.00338,-0.399092 c 0,0 -7.74471,-16.99139 -8.38838,-26.306111 -0.3179,-4.6004 0.0433,-8.38809 2.84785,-12.04859 2.15831,-2.81704 6.64181,-6.23092 10.15003,-5.69571 z"
           id="path1152"
           sodipodi:nodetypes="ssccsss" />
        <path
           style="fill:#fdfdfd;fill-opacity:1;stroke:#d6dedf;stroke-width:1.41183;stroke-linecap:butt;stroke-linejoin:miter;stroke-miterlimit:4;stroke-dasharray:none;stroke-opacity:1"
           d="m 199.15847,-124.82595 c 0,0 12.38946,-34.87191 20.48992,-38.733 3.99121,-1.90242 4.50648,11.05184 3.28257,16.53674 -1.41949,6.36135 -6.66354,11.48466 -11.59935,15.74136 -3.47811,2.99955 -12.17314,6.4549 -12.17314,6.4549 z"
           id="path1154"
           sodipodi:nodetypes="csaac" />
        <path
           style="fill:#fdfdfd;fill-opacity:1;stroke:#d6dedf;stroke-width:1.41183;stroke-linecap:round;stroke-linejoin:round;stroke-miterlimit:4;stroke-dasharray:none;stroke-opacity:1"
           d="m 201.67968,-114.91952 c 0.5222,0.10538 11.84404,-30.00956 19.28829,-36.75103 3.80306,-3.44403 21.96365,-8.24026 21.43339,-6.62323 -1.75206,5.34297 -6.03087,13.50122 -7.39306,15.42903 l -16.49587,10.90594 14.40127,-8.59122 c 2.26614,-1.35189 6.72811,0.35991 6.56223,2.80818 -0.85453,12.61199 -37.79625,22.82233 -37.79625,22.82233 z"
           id="path1156"
           sodipodi:nodetypes="cssccssc" />
        <path
           id="path1158"
           style="opacity:1;fill:#000000;fill-opacity:1;stroke:none;stroke-width:1.41183;stroke-linecap:round;stroke-linejoin:round;stroke-miterlimit:4;stroke-dasharray:none;stroke-opacity:1;paint-order:normal"
           d="m 180.57769,-114.25196 c -0.0108,-3.6e-4 -0.0219,-2.1e-4 -0.0331,5.2e-4 -2.86859,0.18549 -6.78081,-0.0818 -9.53068,1.59577 -2.01778,1.23096 -4.15934,3.04059 -4.70876,5.43532 a 2.5557632,2.5375078 0 0 0 -0.65525,-0.0853 2.5557632,2.5375078 0 0 0 -2.55592,2.53783 2.5557632,2.5375078 0 0 0 2.55592,2.53731 2.5557632,2.5375078 0 0 0 2.55591,-2.53731 2.5557632,2.5375078 0 0 0 -0.47129,-1.46761 c 0.29743,-0.97581 0.5324,-3.18818 4.20801,-5.21777 3.15098,-1.7399 6.79405,-0.87117 8.60155,-0.7028 0.7015,0.0653 0.71463,-2.07321 0.0336,-2.096 z" />
        <circle
           style="opacity:1;fill:#000000;fill-opacity:1;stroke:none;stroke-width:1.41183;stroke-linecap:round;stroke-linejoin:round;stroke-miterlimit:4;stroke-dasharray:none;stroke-opacity:1;paint-order:normal"
           id="circle1160"
           cx="187.10013"
           cy="-109.58747"
           r="2.3549533" />
        <path
           id="path1162"
           style="opacity:1;fill:#000000;fill-opacity:1;stroke:none;stroke-width:1.41183;stroke-linecap:round;stroke-linejoin:round;stroke-miterlimit:4;stroke-dasharray:none;stroke-opacity:1;paint-order:normal"
           d="m 180.22577,-109.03316 c -1.60334,0.38258 -5.06663,2.37085 -6.97529,4.06022 a 2.3732087,2.5375078 0 0 0 -0.95549,-0.21497 2.3732087,2.5375078 0 0 0 -2.3735,2.53731 2.3732087,2.5375078 0 0 0 2.3735,2.53783 2.3732087,2.5375078 0 0 0 2.37298,-2.53783 2.3732087,2.5375078 0 0 0 -0.25787,-1.15032 c 1.93039,-2.04755 5.25189,-3.38612 6.38359,-3.81217 0.52226,-0.19661 -0.56792,-1.42007 -0.56792,-1.42007 z" />
        <path
           style="fill:#000000;fill-opacity:1;stroke:none;stroke-width:1.41183;stroke-linecap:butt;stroke-linejoin:miter;stroke-miterlimit:4;stroke-dasharray:none;stroke-opacity:1"
           d="m 226.99742,-75.08467 1.78836,0.49037 -2.36341,5.095797 z"
           id="path1164"
           sodipodi:nodetypes="cccc" />
        <path
           id="path1166"
           style="fill:#000000;fill-opacity:1;stroke:none;stroke-width:1.41183;stroke-linecap:butt;stroke-linejoin:miter;stroke-miterlimit:4;stroke-dasharray:none;stroke-opacity:1"
           d="m 233.8992,-118.12857 c -1.06653,2.90181 -2.55836,5.67903 -4.39582,7.07021 -2.11171,1.59884 -5.51426,2.49432 -9.4882,2.37035 -0.36134,1.26412 -0.57578,2.52121 -0.63146,3.89541 4.27199,-0.28583 9.1904,-0.91758 12.41823,-3.68813 1.85971,-1.59626 3.73967,-4.70868 5.15383,-8.5022 -0.90531,-0.44279 -1.98218,-0.85428 -3.05658,-1.14564 z"
           sodipodi:nodetypes="csccscc" />
        <path
           style="fill:#000000;fill-opacity:1;stroke:none;stroke-width:1.41183;stroke-linecap:butt;stroke-linejoin:miter;stroke-miterlimit:4;stroke-dasharray:none;stroke-opacity:1"
           d="m 241.63166,-113.33499 c 1.76577,2.35064 2.90412,3.86003 3.55401,7.00241 -6.96916,11.093248 -17.64194,11.636056 -24.55622,11.49877 -0.3586,-1.437991 -0.67923,-2.92153 -0.91652,-4.505085 11.66509,2.219563 24.0399,-4.559915 21.91873,-13.996095 z"
           id="path1168"
           sodipodi:nodetypes="ccccc" />
        <path
           style="fill:#000000;fill-opacity:1;stroke:none;stroke-width:1.41183;stroke-linecap:butt;stroke-linejoin:miter;stroke-miterlimit:4;stroke-dasharray:none;stroke-opacity:1"
           d="m 221.8449,-90.708041 c 0,0 2.66634,1.661858 5.83294,1.989662 3.25324,0.336771 7.44538,-0.715027 9.39709,-1.597439 3.47016,-1.568938 8.59666,-7.706341 8.59666,-7.706341 0,0 -0.80111,3.551884 -2.36022,6.338037 -0.90441,1.616184 -3.27706,3.940599 -4.35178,4.698712 -3.69252,2.604721 -14.99326,2.381438 -14.99326,2.381438 z"
           id="path1170"
           sodipodi:nodetypes="csscsscc" />
        <path
           id="path1172"
           style="opacity:1;fill:#fdfdfd;fill-opacity:1;stroke:none;stroke-width:1.41183;stroke-linecap:round;stroke-linejoin:round;stroke-miterlimit:4;stroke-dasharray:none;stroke-opacity:1"
           d="m 191.5196,-118.17747 c -0.28295,2.27692 0.0476,4.65683 0.76186,6.84041 0.64204,1.96319 1.76487,3.70912 3.26284,5.19298 -0.0945,-0.85454 -0.80686,-1.97935 -1.16401,-2.98625 -0.54691,-1.54191 -1.22301,-2.94715 -1.49743,-4.67408 -0.33323,-2.09701 -0.0425,-4.38764 -0.0511,-5.97372 z"
           sodipodi:nodetypes="cscascc" />
      </g>
    </g>
  </g>
</svg>
